REM DIRINDEX 1\2\5,1\2\6,1\2\7,1\2\8,1\3\9,1\3\10,1\3\11,1\4\12,1\4\13,1\4\14,1\4\15,1\4\16
REM DIRNAME folder01,folder02,folder03,folder04,folder05,folder06,folder07,folder08,folder09,folder10,folder11,folder12,folder13,folder14,folder15,folder16
TITLE ""
FILE "1200_2_sec03_0801_0818.mp3" MP3
  TRACK 01 AUDIO
    TITLE "0:"
    INDEX 01 00:00:00
  TRACK 02 AUDIO
    TITLE "10:cjc034_01647"
    INDEX 01 00:00:15
  TRACK 03 AUDIO
    TITLE "0:"
    INDEX 01 00:02:38
  TRACK 04 AUDIO
    TITLE "9:cjc034_01648"
    INDEX 01 00:02:43
  TRACK 05 AUDIO
    TITLE "0:"
    INDEX 01 00:03:74
  TRACK 06 AUDIO
    TITLE "11:cjc034_01649"
    INDEX 01 00:05:50
  TRACK 07 AUDIO
    TITLE "0:"
    INDEX 01 00:10:35
  TRACK 08 AUDIO
    TITLE "10:cjc034_01650"
    INDEX 01 00:11:40
  TRACK 09 AUDIO
    TITLE "0:"
    INDEX 01 00:12:42
  TRACK 10 AUDIO
    TITLE "9:cjc034_01651"
    INDEX 01 00:12:50
  TRACK 11 AUDIO
    TITLE "0:"
    INDEX 01 00:13:65
  TRACK 12 AUDIO
    TITLE "10:cjc034_01652"
    INDEX 01 00:14:51
  TRACK 13 AUDIO
    TITLE "0:"
    INDEX 01 00:16:61
  TRACK 14 AUDIO
    TITLE "9:cjc034_01653"
    INDEX 01 00:16:67
  TRACK 15 AUDIO
    TITLE "0:"
    INDEX 01 00:18:09
  TRACK 16 AUDIO
    TITLE "10:cjc034_01654"
    INDEX 01 00:18:64
  TRACK 17 AUDIO
    TITLE "0:"
    INDEX 01 00:19:60
  TRACK 18 AUDIO
    TITLE "9:cjc034_01655"
    INDEX 01 00:19:65
  TRACK 19 AUDIO
    TITLE "0:"
    INDEX 01 00:20:71
  TRACK 20 AUDIO
    TITLE "10:cjc034_01656"
    INDEX 01 00:21:58
  TRACK 21 AUDIO
    TITLE "0:"
    INDEX 01 00:23:69
  TRACK 22 AUDIO
    TITLE "9:cjc034_01657"
    INDEX 01 00:23:71
  TRACK 23 AUDIO
    TITLE "0:"
    INDEX 01 00:25:11
  TRACK 24 AUDIO
    TITLE "10:cjc034_01658"
    INDEX 01 00:25:62
  TRACK 25 AUDIO
    TITLE "0:"
    INDEX 01 00:26:62
  TRACK 26 AUDIO
    TITLE "9:cjc034_01659"
    INDEX 01 00:26:67
  TRACK 27 AUDIO
    TITLE "0:"
    INDEX 01 00:28:17
  TRACK 28 AUDIO
    TITLE "10:cjc034_01660"
    INDEX 01 00:28:74
  TRACK 29 AUDIO
    TITLE "0:"
    INDEX 01 00:29:66
  TRACK 30 AUDIO
    TITLE "9:cjc034_01661"
    INDEX 01 00:29:74
  TRACK 31 AUDIO
    TITLE "0:"
    INDEX 01 00:31:02
  TRACK 32 AUDIO
    TITLE "10:cjc034_01662"
    INDEX 01 00:31:59
  TRACK 33 AUDIO
    TITLE "0:"
    INDEX 01 00:34:00
  TRACK 34 AUDIO
    TITLE "9:cjc034_01663"
    INDEX 01 00:34:04
  TRACK 35 AUDIO
    TITLE "0:"
    INDEX 01 00:35:12
  TRACK 36 AUDIO
    TITLE "10:cjc034_01664"
    INDEX 01 00:35:72
  TRACK 37 AUDIO
    TITLE "0:"
    INDEX 01 00:36:74
  TRACK 38 AUDIO
    TITLE "9:cjc034_01665"
    INDEX 01 00:37:08
  TRACK 39 AUDIO
    TITLE "0:"
    INDEX 01 00:38:16
  TRACK 40 AUDIO
    TITLE "10:cjc034_01666"
    INDEX 01 00:39:02
  TRACK 41 AUDIO
    TITLE "0:"
    INDEX 01 00:41:61
  TRACK 42 AUDIO
    TITLE "9:cjc034_01667"
    INDEX 01 00:41:65
  TRACK 43 AUDIO
    TITLE "0:"
    INDEX 01 00:43:13
  TRACK 44 AUDIO
    TITLE "10:cjc034_01668"
    INDEX 01 00:43:70
  TRACK 45 AUDIO
    TITLE "0:"
    INDEX 01 00:46:35
  TRACK 46 AUDIO
    TITLE "9:cjc034_01669"
    INDEX 01 00:46:37
  TRACK 47 AUDIO
    TITLE "0:"
    INDEX 01 00:47:58
  TRACK 48 AUDIO
    TITLE "10:cjc034_01670"
    INDEX 01 00:48:42
  TRACK 49 AUDIO
    TITLE "0:"
    INDEX 01 00:49:57
  TRACK 50 AUDIO
    TITLE "9:cjc034_01671"
    INDEX 01 00:49:61
  TRACK 51 AUDIO
    TITLE "0:"
    INDEX 01 00:50:74
  TRACK 52 AUDIO
    TITLE "10:cjc034_01672"
    INDEX 01 00:51:52
  TRACK 53 AUDIO
    TITLE "0:"
    INDEX 01 00:53:17
  TRACK 54 AUDIO
    TITLE "9:cjc034_01673"
    INDEX 01 00:53:23
  TRACK 55 AUDIO
    TITLE "0:"
    INDEX 01 00:54:44
  TRACK 56 AUDIO
    TITLE "10:cjc034_01674"
    INDEX 01 00:55:28
  TRACK 57 AUDIO
    TITLE "0:"
    INDEX 01 00:57:48
  TRACK 58 AUDIO
    TITLE "9:cjc034_01675"
    INDEX 01 00:57:50
  TRACK 59 AUDIO
    TITLE "0:"
    INDEX 01 00:58:60
  TRACK 60 AUDIO
    TITLE "10:cjc034_01676"
    INDEX 01 00:59:43
  TRACK 61 AUDIO
    TITLE "0:"
    INDEX 01 01:02:03
  TRACK 62 AUDIO
    TITLE "9:cjc034_01677"
    INDEX 01 01:02:08
  TRACK 63 AUDIO
    TITLE "0:"
    INDEX 01 01:03:22
  TRACK 64 AUDIO
    TITLE "10:cjc034_01678"
    INDEX 01 01:04:09
  TRACK 65 AUDIO
    TITLE "0:"
    INDEX 01 01:05:32
  TRACK 66 AUDIO
    TITLE "9:cjc034_01679"
    INDEX 01 01:05:36
  TRACK 67 AUDIO
    TITLE "0:"
    INDEX 01 01:06:49
  TRACK 68 AUDIO
    TITLE "10:cjc034_01680"
    INDEX 01 01:07:33
  TRACK 69 AUDIO
    TITLE "0:"
    INDEX 01 01:08:62
  TRACK 70 AUDIO
    TITLE "9:cjc034_01681"
    INDEX 01 01:08:66
  TRACK 71 AUDIO
    TITLE "0:"
    INDEX 01 01:10:30
  TRACK 72 AUDIO
    TITLE "10:cjc034_01682"
    INDEX 01 01:11:13
  TRACK 73 AUDIO
    TITLE "0:"
    INDEX 01 01:12:46
  TRACK 74 AUDIO
    TITLE "9:cjc034_01683"
    INDEX 01 01:12:48
  TRACK 75 AUDIO
    TITLE "0:"
    INDEX 01 01:13:71
